PathFileType	4	(X/Y/Z)	C:/Users/opensim2020/Desktop/walking_exp_matlab/subject01_walking09_straight_04.trc																																																																																																																															
DataRate	CameraRate	NumFrames	NumMarkers	Units	OrigDataRate	OrigDataStartFrame	OrigNumFrames																																																																																																																											
100	100	4	43	mm	100	3923	292																																																																																																																											
Frame#	Time	LFHD			RFHD			LBHD			RBHD			C7			T10			CLAV			STRN			RBAK			LSHO			LUPA			LELB			LFRM			LWRA			LWRB			LFIN			RSHO			RUPA			RELB			RFRM			RWRA			RWRB			RFIN			LASI			RASI			LPSI			RPSI			LTHI			LKNE			LTIB			LANK			LHEE			LTOE			RTHI			RKNE			RTIB			RANK			RHEE			RTOE			*39			*40			*41			*42		
		X1	Y1	Z1	X2	Y2	Z2	X3	Y3	Z3	X4	Y4	Z4	X5	Y5	Z5	X6	Y6	Z6	X7	Y7	Z7	X8	Y8	Z8	X9	Y9	Z9	X10	Y10	Z10	X11	Y11	Z11	X12	Y12	Z12	X13	Y13	Z13	X14	Y14	Z14	X15	Y15	Z15	X16	Y16	Z16	X17	Y17	Z17	X18	Y18	Z18	X19	Y19	Z19	X20	Y20	Z20	X21	Y21	Z21	X22	Y22	Z22	X23	Y23	Z23	X24	Y24	Z24	X25	Y25	Z25	X26	Y26	Z26	X27	Y27	Z27	X28	Y28	Z28	X29	Y29	Z29	X30	Y30	Z30	X31	Y31	Z31	X32	Y32	Z32	X33	Y33	Z33	X34	Y34	Z34	X35	Y35	Z35	X36	Y36	Z36	X37	Y37	Z37	X38	Y38	Z38	X39	Y39	Z39	X40	Y40	Z40	X41	Y41	Z41	X42	Y42	Z42	X43	Y43	Z43
																																																																																																																																		
37	0.36	-899.72241	1671.70947	-1541.2981	-886.32465	1683.56262	-1429.45056	-1016.67285	1630.83704	-1530.40771	-1006.93024	1642.54297	-1412.05994	-1062.40759	1440.02612	-1470.56433	-1099.93811	1148.01306	-1451.3927	-919.52576	1372.04736	-1476.28479	-878.39923	1216.4895	-1478.01379	-1113.30066	1249.39893	-1381.77271	-990.54547	1395.92285	-1633.62073	-1008.31732	1210.76904	-1715.797	-997.64447	1059.90063	-1719.95703	-936.8147	962.63727	-1743.47595	-837.06714	867.133	-1721.36536	-888.22882	850.84509	-1748.48779	-824.19067	796.20355	-1760.16162	-971.64813	1408.05359	-1322.01746	-1027.57483	1211.49695	-1212.05713	-1029.93701	1086.84631	-1207.23096	-1003.51068	970.28253	-1173.57715	-926.59747	851.06689	-1193.63745	-967.23254	854.65765	-1150.77112	-931.15265	775.52173	-1152.8042	-937.49652	934.9328	-1561.15942	-927.46167	945.99115	-1345.05835	-1120.15894	952.88342	-1498.95508	-1110.61365	957.11438	-1353.54907	-969.48999	601.57227	-1602.93311	-977.45624	468.30634	-1581.82117	-1040.03662	288.24899	-1585.59644	-1084.30505	75.44141	-1531.18787	-1129.3241	46.40557	-1476.97144	-938.11572	38.17995	-1541.91431	-893.87848	625.31458	-1272.37341	-849.3277	471.91043	-1294.94739	-927.8349	313.35382	-1291.44116	-984.17792	114.19477	-1338.03345	-1030.73621	78.91261	-1393.92822	-855.15686	57.74063	-1324.27063	-896.76642	1716.26306	-1453.82251	-1973.13513	1023.34863	3101.89551	-2012.48389	1022.09729	3140.57935	NaN	NaN	NaN
38	0.37	-893.13	1671.59985	-1540.98743	-879.81085	1683.26196	-1429.12634	-1010.08423	1630.76331	-1530.29578	-1000.31726	1642.21643	-1411.78345	-1056.07764	1440.07117	-1471.11487	-1094.02661	1148.02393	-1452.08411	-913.16107	1371.71191	-1476.33887	-872.34747	1216.17017	-1478.43604	-1107.37708	1249.3335	-1382.35657	-983.74213	1396.05505	-1633.8866	-1000.96307	1211.12805	-1716.5437	-989.88263	1060.22144	-1720.96851	-928.42249	963.59094	-1744.72485	-827.81104	868.65955	-1722.0365	-878.789	852.08032	-1749.46765	-814.37842	798.06415	-1761.06665	-965.45624	1407.69824	-1322.08118	-1022.19885	1211.03052	-1212.69556	-1025.02637	1086.4325	-1207.9248	-999.09418	969.72418	-1174.31311	-922.53748	850.27289	-1194.38672	-963.69214	854.24683	-1151.51917	-927.55902	774.83569	-1153.61707	-932.23389	934.45697	-1561.90271	-921.79968	945.86627	-1345.70703	-1114.75269	952.73376	-1499.28345	-1104.82422	957.01514	-1353.94043	-966.22736	601.14972	-1603.2063	-975.25525	467.87769	-1582.14746	-1038.84668	288.10089	-1585.68628	-1084.12732	75.47355	-1531.13147	-1129.3446	46.6059	-1476.8739	-938.08246	38.10165	-1541.83411	-888.23724	625.26019	-1272.65466	-842.5968	472.41205	-1295.78357	-915.10553	311.18353	-1291.81018	-961.70081	109.18022	-1338.03967	-1007.02576	72.31953	-1394.03271	-830.03113	58.64484	-1324.54163	-890.21252	1716.0293	-1453.49573	-1973.09583	1023.38141	3101.90186	-2012.4895	1022.06628	3140.8186	NaN	NaN	NaN
39	0.38	-886.51874	1671.41663	-1540.65588	-873.48248	1682.76111	-1428.57642	-1003.52985	1630.63892	-1530.12744	-994.07239	1641.93213	-1411.73975	-1049.63306	1439.91248	-1471.34192	-1088.04004	1147.92908	-1452.65918	-906.76862	1371.39478	-1476.50989	-866.24017	1215.70715	-1478.74988	-1101.30737	1249.19299	-1382.96997	-976.94214	1396.12402	-1634.09558	-993.60284	1211.42981	-1717.22144	-982.17194	1060.46423	-1721.93115	-919.98804	964.29401	-1745.55994	-818.53534	870.30505	-1722.82715	-869.39325	853.04022	-1749.95496	-804.4314	799.68188	-1761.68994	-959.28027	1407.18921	-1322.20239	-1016.91901	1210.56091	-1213.20178	-1020.05542	1085.98535	-1208.43066	-994.60156	969.117	-1174.9718	-918.52844	849.33545	-1195.07532	-959.4184	853.28033	-1152.11377	-923.81842	773.83771	-1154.22253	-926.91699	933.92871	-1562.61707	-915.79224	945.4718	-1346.24341	-1109.22998	952.50256	-1499.4751	-1099.06494	956.86176	-1354.25537	-962.95575	600.62823	-1603.39905	-973.0498	467.34943	-1582.39624	-1037.59485	287.98907	-1585.82983	-1084.0437	75.73034	-1531.14063	-1129.26721	46.76204	-1476.729	-938.21936	38.21605	-1542.03833	-882.90198	625.16248	-1273.13684	-836.1535	472.67279	-1296.59705	-902.16571	308.7854	-1292.19653	-938.53638	104.65498	-1338.23657	-981.86304	65.74472	-1393.65869	-805.16528	59.52495	-1324.4292	-883.62018	1715.7207	-1453.04382	-1973.08826	1023.44635	3101.9812	-2012.5238	1022.04755	3140.72217	NaN	NaN	NaN
40	0.39	-879.92932	1671.18738	-1540.19165	-866.84656	1682.36963	-1428.22791	-996.96448	1630.44312	-1529.86877	-987.58972	1641.51648	-1411.4729	-1043.22485	1439.68115	-1471.53601	-1082.02258	1147.78223	-1453.15955	-900.40186	1370.9895	-1476.48047	-859.98682	1215.29321	-1479.06384	-1095.26611	1248.97852	-1383.45374	-970.15649	1396.07996	-1634.1582	-986.24957	1211.61877	-1717.76819	-974.48712	1060.59534	-1722.72961	-911.55786	964.87732	-1746.27161	-809.40308	871.66785	-1723.35156	-860.0918	854.11731	-1750.67212	-794.7049	801.30103	-1762.34436	-953.04907	1406.50354	-1322.40784	-1011.49042	1209.99304	-1213.70532	-1014.99963	1085.42847	-1209.04077	-990.16541	968.54474	-1175.68774	-914.25122	848.52832	-1195.51111	-955.42371	852.56018	-1152.78333	-919.8609	772.93921	-1154.91724	-921.48053	933.35986	-1563.26147	-909.75604	945.32489	-1346.91162	-1103.7373	952.32965	-1499.64612	-1093.17017	956.71655	-1354.52075	-959.69287	600.14874	-1603.61963	-970.84448	466.84149	-1582.62463	-1036.31445	287.83704	-1585.96777	-1083.88013	75.79747	-1531.02893	-1129.1825	46.98472	-1476.6333	-938.19128	38.14783	-1542.02356	-877.86279	624.61548	-1273.38928	-829.95422	472.82126	-1297.62036	-889.17041	306.61621	-1292.42188	-916.03253	100.61639	-1337.89307	-957.65747	59.75682	-1393.10583	-780.73761	61.05822	-1324.46997	-877.08612	1715.33679	-1452.47876	-1973.04431	1023.29425	3101.85205	-2012.55627	1022.09644	3140.73218	NaN	NaN	NaN
